<svg width="21" height="20" viewBox="0 0 21 20" fill="none" xmlns="http://www.w3.org/2000/svg">
<g id="coffee-cup">
<path id="Vector" d="M14.667 9.76667V11.6667C14.667 14.8883 12.0553 17.5 8.83366 17.5C5.612 17.5 3.00033 14.8883 3.00033 11.6667V9.76667C3.00033 9.4353 3.26896 9.16667 3.60033 9.16667H14.067C14.3984 9.16667 14.667 9.4353 14.667 9.76667Z" stroke="#403F3D" stroke-width="1.5" stroke-linecap="round" stroke-linejoin="round"/>
<path id="Vector 13" d="M10.5003 7.50008C10.5003 6.66675 11.0956 5.83341 12.286 5.83341V5.83341C13.601 5.83341 14.667 4.76743 14.667 3.45246V2.91675" stroke="#403F3D" stroke-width="1.5" stroke-linecap="round" stroke-linejoin="round"/>
<path id="Vector 14" d="M7.16634 7.5V7.08333C7.16634 5.70262 8.28563 4.58333 9.66634 4.58333V4.58333C10.5868 4.58333 11.333 3.83714 11.333 2.91667V2.5" stroke="#403F3D" stroke-width="1.5" stroke-linecap="round" stroke-linejoin="round"/>
<path id="Vector_2" d="M13.833 9.16675H15.9163C17.0669 9.16675 17.9997 10.0995 17.9997 11.2501C17.9997 12.4007 17.0669 13.3334 15.9163 13.3334H14.6663" stroke="#403F3D" stroke-width="1.5" stroke-linecap="round" stroke-linejoin="round"/>
</g>
</svg>
